<svg width="64" height="64" viewBox="0 0 64 64" fill="none" xmlns="http://www.w3.org/2000/svg">
<path d="M47.0666 16.9333C42.72 12.5866 36.56 10.0799 29.7866 10.7733C20 11.7599 11.9466 19.7066 10.8533 29.4933C9.38664 42.4266 19.3866 53.3333 32 53.3333C40.5066 53.3333 47.8133 48.3466 51.2266 41.1733C52.08 39.3866 50.8 37.3333 48.8266 37.3333C47.84 37.3333 46.9066 37.8666 46.48 38.7466C43.4666 45.2266 36.24 49.3333 28.3466 47.5733C22.4266 46.2666 17.6533 41.4399 16.4 35.5199C14.16 25.1733 22.0266 15.9999 32 15.9999C36.4266 15.9999 40.3733 17.8399 43.2533 20.7466L39.2266 24.7733C37.5466 26.4533 38.72 29.3333 41.0933 29.3333H50.6666C52.1333 29.3333 53.3333 28.1333 53.3333 26.6666V17.0933C53.3333 14.7199 50.4533 13.5199 48.7733 15.1999L47.0666 16.9333V16.9333Z" fill="white"/>
</svg>
